<mxfile host="app.diagrams.net" modified="2022-02-19T09:09:51.440Z" agent="5.0 (Windows NT 6.3; Win64; x64) AppleWebKit/537.36 (KHTML, like Gecko) Chrome/98.0.4758.102 Safari/537.36" etag="y3ffeUh1_9p7gGiVjfIV" version="16.6.1" type="github">
  <diagram name="Page-1" id="12e1b939-464a-85fe-373e-61e167be1490">
    <mxGraphModel dx="1483" dy="-490" grid="1" gridSize="10" guides="1" tooltips="1" connect="1" arrows="1" fold="1" page="1" pageScale="1.5" pageWidth="1169" pageHeight="826" background="none" math="0" shadow="0">
      <root>
        <mxCell id="0" />
        <mxCell id="1" parent="0" />
        <mxCell id="upi890UawkTOX7c28CoJ-33" value="&lt;font style=&quot;font-size: 14px&quot; face=&quot;Times New Roman&quot;&gt;&lt;b&gt;全局副本池&lt;/b&gt;&lt;/font&gt;" style="rounded=0;whiteSpace=wrap;html=1;fillColor=#e6d0de;strokeColor=#996185;gradientColor=#d5739d;" parent="1" vertex="1">
          <mxGeometry x="310" y="1829" width="660" height="161" as="geometry" />
        </mxCell>
        <mxCell id="upi890UawkTOX7c28CoJ-28" value="&lt;span&gt;&lt;font face=&quot;Times New Roman&quot; style=&quot;font-size: 14px&quot;&gt;&lt;b&gt;设备2&amp;nbsp;本地EC池&lt;/b&gt;&lt;/font&gt;&lt;/span&gt;" style="rounded=0;whiteSpace=wrap;html=1;dashed=1;fillColor=#FFE599;" parent="1" vertex="1">
          <mxGeometry x="680" y="1850" width="260" height="130" as="geometry" />
        </mxCell>
        <mxCell id="upi890UawkTOX7c28CoJ-10" value="&lt;b&gt;&lt;font face=&quot;Times New Roman&quot; style=&quot;font-size: 14px&quot;&gt;设备1&amp;nbsp;本地EC池&lt;/font&gt;&lt;/b&gt;" style="rounded=0;whiteSpace=wrap;html=1;dashed=1;fillColor=#CCFFE6;" parent="1" vertex="1">
          <mxGeometry x="340" y="1850" width="260" height="130" as="geometry" />
        </mxCell>
        <mxCell id="upi890UawkTOX7c28CoJ-11" value="" style="verticalLabelPosition=bottom;html=1;verticalAlign=top;align=center;strokeColor=none;fillColor=#00BEF2;shape=mxgraph.azure.vhd;pointerEvents=1;" parent="1" vertex="1">
          <mxGeometry x="360" y="1860" width="40" height="50" as="geometry" />
        </mxCell>
        <mxCell id="upi890UawkTOX7c28CoJ-12" value="" style="verticalLabelPosition=bottom;html=1;verticalAlign=top;align=center;strokeColor=none;fillColor=#00BEF2;shape=mxgraph.azure.vhd;pointerEvents=1;" parent="1" vertex="1">
          <mxGeometry x="416.5" y="1860" width="43.5" height="50" as="geometry" />
        </mxCell>
        <mxCell id="upi890UawkTOX7c28CoJ-13" value="" style="verticalLabelPosition=bottom;html=1;verticalAlign=top;align=center;strokeColor=none;fillColor=#00BEF2;shape=mxgraph.azure.vhd;pointerEvents=1;" parent="1" vertex="1">
          <mxGeometry x="480" y="1860" width="40" height="50" as="geometry" />
        </mxCell>
        <mxCell id="upi890UawkTOX7c28CoJ-14" value="" style="verticalLabelPosition=bottom;html=1;verticalAlign=top;align=center;strokeColor=none;fillColor=#00BEF2;shape=mxgraph.azure.vhd;pointerEvents=1;" parent="1" vertex="1">
          <mxGeometry x="540" y="1860" width="40" height="50" as="geometry" />
        </mxCell>
        <mxCell id="upi890UawkTOX7c28CoJ-15" value="" style="verticalLabelPosition=bottom;html=1;verticalAlign=top;align=center;strokeColor=none;fillColor=#00BEF2;shape=mxgraph.azure.vhd;pointerEvents=1;" parent="1" vertex="1">
          <mxGeometry x="360" y="1924.75" width="40" height="50" as="geometry" />
        </mxCell>
        <mxCell id="upi890UawkTOX7c28CoJ-16" value="" style="verticalLabelPosition=bottom;html=1;verticalAlign=top;align=center;strokeColor=none;fillColor=#00BEF2;shape=mxgraph.azure.vhd;pointerEvents=1;" parent="1" vertex="1">
          <mxGeometry x="416.5" y="1924.75" width="40" height="50" as="geometry" />
        </mxCell>
        <mxCell id="upi890UawkTOX7c28CoJ-17" value="" style="verticalLabelPosition=bottom;html=1;verticalAlign=top;align=center;strokeColor=none;fillColor=#00BEF2;shape=mxgraph.azure.vhd;pointerEvents=1;" parent="1" vertex="1">
          <mxGeometry x="480" y="1924.75" width="40" height="50" as="geometry" />
        </mxCell>
        <mxCell id="upi890UawkTOX7c28CoJ-18" value="" style="verticalLabelPosition=bottom;html=1;verticalAlign=top;align=center;strokeColor=none;fillColor=#00BEF2;shape=mxgraph.azure.vhd;pointerEvents=1;" parent="1" vertex="1">
          <mxGeometry x="540" y="1924.75" width="40" height="50" as="geometry" />
        </mxCell>
        <mxCell id="upi890UawkTOX7c28CoJ-20" value="" style="verticalLabelPosition=bottom;html=1;verticalAlign=top;align=center;strokeColor=none;fillColor=#00BEF2;shape=mxgraph.azure.vhd;pointerEvents=1;" parent="1" vertex="1">
          <mxGeometry x="700" y="1860" width="40" height="50" as="geometry" />
        </mxCell>
        <mxCell id="upi890UawkTOX7c28CoJ-21" value="" style="verticalLabelPosition=bottom;html=1;verticalAlign=top;align=center;strokeColor=none;fillColor=#00BEF2;shape=mxgraph.azure.vhd;pointerEvents=1;" parent="1" vertex="1">
          <mxGeometry x="756.5" y="1860" width="40" height="50" as="geometry" />
        </mxCell>
        <mxCell id="upi890UawkTOX7c28CoJ-22" value="" style="verticalLabelPosition=bottom;html=1;verticalAlign=top;align=center;strokeColor=none;fillColor=#00BEF2;shape=mxgraph.azure.vhd;pointerEvents=1;" parent="1" vertex="1">
          <mxGeometry x="820" y="1860" width="40" height="50" as="geometry" />
        </mxCell>
        <mxCell id="upi890UawkTOX7c28CoJ-23" value="" style="verticalLabelPosition=bottom;html=1;verticalAlign=top;align=center;strokeColor=none;fillColor=#00BEF2;shape=mxgraph.azure.vhd;pointerEvents=1;" parent="1" vertex="1">
          <mxGeometry x="880" y="1860" width="40" height="50" as="geometry" />
        </mxCell>
        <mxCell id="upi890UawkTOX7c28CoJ-24" value="" style="verticalLabelPosition=bottom;html=1;verticalAlign=top;align=center;strokeColor=none;fillColor=#00BEF2;shape=mxgraph.azure.vhd;pointerEvents=1;" parent="1" vertex="1">
          <mxGeometry x="700" y="1924.75" width="40" height="50" as="geometry" />
        </mxCell>
        <mxCell id="upi890UawkTOX7c28CoJ-25" value="" style="verticalLabelPosition=bottom;html=1;verticalAlign=top;align=center;strokeColor=none;fillColor=#00BEF2;shape=mxgraph.azure.vhd;pointerEvents=1;" parent="1" vertex="1">
          <mxGeometry x="756.5" y="1924.75" width="40" height="50" as="geometry" />
        </mxCell>
        <mxCell id="upi890UawkTOX7c28CoJ-26" value="" style="verticalLabelPosition=bottom;html=1;verticalAlign=top;align=center;strokeColor=none;fillColor=#00BEF2;shape=mxgraph.azure.vhd;pointerEvents=1;" parent="1" vertex="1">
          <mxGeometry x="820" y="1924.75" width="40" height="50" as="geometry" />
        </mxCell>
        <mxCell id="upi890UawkTOX7c28CoJ-27" value="" style="verticalLabelPosition=bottom;html=1;verticalAlign=top;align=center;strokeColor=none;fillColor=#00BEF2;shape=mxgraph.azure.vhd;pointerEvents=1;" parent="1" vertex="1">
          <mxGeometry x="880" y="1924.75" width="40" height="50" as="geometry" />
        </mxCell>
        <mxCell id="upi890UawkTOX7c28CoJ-31" value="&lt;font style=&quot;font-size: 18px&quot;&gt;设备节点1&lt;/font&gt;" style="image;html=1;image=img/lib/clip_art/computers/Server_128x128.png" parent="1" vertex="1">
          <mxGeometry x="423" y="1587" width="110" height="80" as="geometry" />
        </mxCell>
        <mxCell id="upi890UawkTOX7c28CoJ-32" value="&lt;font style=&quot;font-size: 18px&quot;&gt;设备节点2&lt;/font&gt;" style="image;html=1;image=img/lib/clip_art/computers/Server_128x128.png" parent="1" vertex="1">
          <mxGeometry x="753" y="1587" width="110" height="80" as="geometry" />
        </mxCell>
        <mxCell id="nR141ZKhjrjkwCA01esp-1" value="&lt;span style=&quot;color: rgb(0 , 0 , 0)&quot;&gt;视频图像数据&lt;/span&gt;" style="rounded=0;whiteSpace=wrap;html=1;dashed=1;fontFamily=Times New Roman;fontSize=24;fontColor=#FFFFFF;fillColor=#CCFFE6;" vertex="1" parent="1">
          <mxGeometry x="340" y="1698" width="260" height="60" as="geometry" />
        </mxCell>
        <mxCell id="nR141ZKhjrjkwCA01esp-2" value="&lt;span style=&quot;color: rgb(0 , 0 , 0)&quot;&gt;视频图像数据&lt;/span&gt;" style="rounded=0;whiteSpace=wrap;html=1;dashed=1;fontFamily=Times New Roman;fontSize=24;fontColor=#FFFFFF;fillColor=#FFE599;" vertex="1" parent="1">
          <mxGeometry x="680" y="1698" width="260" height="60" as="geometry" />
        </mxCell>
        <mxCell id="nR141ZKhjrjkwCA01esp-4" value="本地通道读写" style="shape=flexArrow;endArrow=classic;startArrow=classic;html=1;rounded=0;fontFamily=Times New Roman;fontSize=14;entryX=0.5;entryY=1;entryDx=0;entryDy=0;exitX=0.5;exitY=0;exitDx=0;exitDy=0;" edge="1" parent="1" source="upi890UawkTOX7c28CoJ-10" target="nR141ZKhjrjkwCA01esp-1">
          <mxGeometry width="100" height="100" relative="1" as="geometry">
            <mxPoint x="470" y="1810" as="sourcePoint" />
            <mxPoint x="570" y="2030" as="targetPoint" />
          </mxGeometry>
        </mxCell>
        <mxCell id="nR141ZKhjrjkwCA01esp-6" value="" style="shape=flexArrow;endArrow=classic;startArrow=classic;html=1;rounded=0;fontFamily=Times New Roman;fontSize=14;entryX=0.5;entryY=1;entryDx=0;entryDy=0;exitX=0.5;exitY=0;exitDx=0;exitDy=0;" edge="1" parent="1" source="upi890UawkTOX7c28CoJ-28" target="nR141ZKhjrjkwCA01esp-2">
          <mxGeometry width="100" height="100" relative="1" as="geometry">
            <mxPoint x="800" y="1860" as="sourcePoint" />
            <mxPoint x="900" y="1760" as="targetPoint" />
            <Array as="points">
              <mxPoint x="810" y="1790" />
            </Array>
          </mxGeometry>
        </mxCell>
        <mxCell id="nR141ZKhjrjkwCA01esp-7" value="本地通道读写" style="edgeLabel;html=1;align=center;verticalAlign=middle;resizable=0;points=[];fontSize=14;fontFamily=Times New Roman;" vertex="1" connectable="0" parent="nR141ZKhjrjkwCA01esp-6">
          <mxGeometry x="-0.0614" y="-3" relative="1" as="geometry">
            <mxPoint as="offset" />
          </mxGeometry>
        </mxCell>
      </root>
    </mxGraphModel>
  </diagram>
</mxfile>
